<svg xmlns="http://www.w3.org/2000/svg" viewBox="0 0 1024 1024" role="img" aria-labelledby="title desc">
  <title id="title">Letter S and timeline icon</title>
  <desc id="desc">A modern abstract S shape formed with blue and yellow timeline lanes.</desc>
  <rect x="96" y="96" width="832" height="832" rx="216" fill="#111827"/>
  <path d="M690 296H426c-76 0-132 48-132 114s56 106 132 106h172c72 0 132 46 132 112s-60 112-132 112H322" fill="none" stroke="#E5E7EB" stroke-width="92" stroke-linecap="round"/>
  <path d="M690 296H426c-76 0-132 48-132 114s56 106 132 106h64" fill="none" stroke="#38BDF8" stroke-width="54" stroke-linecap="round"/>
  <path d="M534 516h64c72 0 132 46 132 112s-60 112-132 112H322" fill="none" stroke="#FBBF24" stroke-width="54" stroke-linecap="round"/>
  <rect x="246" y="458" width="532" height="36" rx="18" fill="#334155"/>
  <rect x="246" y="566" width="532" height="36" rx="18" fill="#334155"/>
</svg>
